#!OML:ASF F:\VICON\USERDATA\Patient Classification 1\PLAYGROUND\JustinFriday\JustinFriday.ASF
:FULLY-SPECIFIED
:DEGREES
635
root -1.81059 8.44291 -1.66378 -239.138 -170.691 176.794
lowerback 31.669 0.314745 -0.446958
upperback 5.32611 0.551558 2.81691
thorax -10.5732 0.26484 3.03654
lowerneck 10.9587 0.245635 -8.79997
upperneck 15.7491 -1.49699 9.83921
head 3.01744 -0.997844 4.52533
rclavicle 2.08724e-015 1.78906e-015
rhumerus 77.0579 -8.36252 -63.0452
rradius 47.5014
rwrist 189.305
rhand -39.2721 36.4635
rfingers 7.12502
rthumb -12.266 6.84325
lclavicle 2.08724e-015 1.78906e-015
lhumerus 64.3178 13.6729 26.9092
lradius 38.1575
lwrist 7.2488
lhand 22.0223 -0.55885
lfingers 7.12502
lthumb 46.4141 22.3612
rfemur -35.8379 -15.1146 17.0178
rtibia 108.417
rfoot -9.41223 2.43304
rtoes 8.56316
lfemur -34.8156 8.86529 12.8312
ltibia 96.3418
lfoot -11.2171 -27.6815
ltoes -26.0151
636
root -1.81644 8.44419 -1.33108 -239.669 -170.347 177.115
lowerback 30.8897 0.376589 -0.735593
upperback 5.7866 0.533425 2.75146
thorax -10.4657 0.290005 3.37232
lowerneck 11.3099 0.360549 -8.95033
upperneck 15.3768 -1.3698 9.93503
head 2.8395 -0.9511 4.57786
rclavicle 7.15625e-015 -1.37161e-014
rhumerus 77.6062 -8.72 -62.495
rradius 47.1308
rwrist 187.49
rhand -40.0419 38.1787
rfingers 7.12502
rthumb -13.0082 8.6043
lclavicle 7.15625e-015 -1.37161e-014
lhumerus 63.5579 13.8531 24.2121
lradius 38.2664
lwrist 7.99615
lhand 20.0472 -1.02419
lfingers 7.12502
lthumb 44.579 22.6393
rfemur -34.8054 -14.8147 16.1589
rtibia 110.438
rfoot -11.71 3.24341
rtoes 10.6916
lfemur -33.8104 8.71213 13.7333
ltibia 98.2197
lfoot -14.2713 -27.0738
ltoes -27.7806
637
root -1.81262 8.45975 -1.00146 -240.281 -169.921 177.204
lowerback 30.5678 0.499221 -0.219283
upperback 5.46309 0.843091 2.51999
thorax -10.6919 0.423479 2.68512
lowerneck 12.8796 0.0456042 -7.66468
upperneck 14.7788 -1.71786 9.61913
head 2.44734 -1.10944 4.269
rclavicle -1.50082e-014 -9.93923e-017
rhumerus 76.6777 -9.69832 -61.1251
rradius 46.74
rwrist 187.155
rhand -40.4133 37.7018
rfingers 7.12502
rthumb -13.3662 8.15052
lclavicle -1.50082e-014 -9.93923e-017
lhumerus 63.5844 12.9869 21.8338
lradius 38.8514
lwrist 8.68682
lhand 18.8697 -0.889372
lfingers 7.12502
lthumb 43.4807 23.1845
rfemur -33.2545 -14.6531 15.4632
rtibia 112.136
rfoot -13.9406 3.70704
rtoes 11.2545
lfemur -32.7294 8.22925 14.715
ltibia 100.044
lfoot -18.1322 -25.67
ltoes -30.3767
638
root -1.81231 8.48559 -0.677 -240.794 -169.554 177.344
lowerback 29.9572 0.353307 -0.265901
upperback 5.76541 0.647048 2.75846
thorax -10.0353 0.326149 3.04942
lowerneck 11.5817 0.204253 -8.59269
upperneck 15.2267 -1.54426 9.70182
head 2.7692 -1.03424 4.44461
rclavicle 5.56597e-015 -1.70955e-014
rhumerus 77.6235 -9.7669 -59.5486
rradius 46.4553
rwrist 186.554
rhand -40.6761 37.1171
rfingers 7.12502
rthumb -13.6194 7.58266
lclavicle 5.56597e-015 -1.70955e-014
lhumerus 62.4835 13.8998 20.0059
lradius 39.6381
lwrist 9.10768
lhand 18.1691 -0.129312
lfingers 7.12502
lthumb 42.8258 24.1779
rfemur -31.7759 -14.4577 14.761
rtibia 113.672
rfoot -15.858 3.93514
rtoes 11.9058
lfemur -31.571 7.60845 15.5753
ltibia 101.685
lfoot -20.8826 -24.6977
ltoes -31.2527
639
root -1.8158 8.52454 -0.358051 -241.435 -169.659 177.97
lowerback 29.266 0.502062 -0.76041
upperback 5.94041 0.629716 2.3376
thorax -9.49214 0.318951 2.85431
lowerneck 11.0002 -0.0251565 -7.7661
upperneck 15.522 -1.75058 9.53585
head 2.95999 -1.08243 4.25218
rclavicle -4.16454e-014 2.8625e-014
rhumerus 77.8169 -10.5832 -58.8148
rradius 46.2152
rwrist 185.602
rhand -40.9414 37.1889
rfingers 7.12502
rthumb -13.8751 7.67172
lclavicle -4.16454e-014 2.8625e-014
lhumerus 62.1193 14.1734 17.6056
lradius 40.659
lwrist 9.82848
lhand 16.8059 0.961896
lfingers 7.12502
lthumb 41.5487 25.7013
rfemur -30.1555 -14.0893 13.2787
rtibia 115.034
rfoot -17.6566 4.21472
rtoes 11.0939
lfemur -29.969 6.76874 15.5139
ltibia 103.047
lfoot -22.5042 -23.9945
ltoes -30.8056
640
root -1.81605 8.56302 -0.0494292 -242.235 -170.009 178.813
lowerback 28.928 0.679738 -1.68332
upperback 5.96145 0.535188 1.93061
thorax -9.29787 0.288865 2.96098
lowerneck 10.6372 -0.182654 -7.25055
upperneck 16.0004 -1.91981 9.34286
head 3.17156 -1.13464 4.10652
rclavicle 1.72943e-014 -3.18055e-015
rhumerus 77.6684 -11.0042 -58.1187
rradius 46.285
rwrist 184.551
rhand -41.3045 37.4079
rfingers 7.12502
rthumb -14.2251 7.915
lclavicle 1.72943e-014 -3.18055e-015
lhumerus 61.2328 14.4007 15.0741
lradius 41.9391
lwrist 10.6463
lhand 14.5547 1.96466
lfingers 7.12502
lthumb 39.4323 27.3595
rfemur -28.4116 -13.6011 11.3934
rtibia 116.283
rfoot -19.3846 4.28931
rtoes 8.34913
lfemur -28.1142 5.93257 14.9249
ltibia 104.243
lfoot -24.1158 -22.6662
ltoes -30.5966
641
root -1.82171 8.59235 0.252956 -242.676 -169.675 179.19
lowerback 28.5278 0.725231 -1.87755
upperback 5.87774 0.524765 1.78592
thorax -9.19393 0.286306 2.91145
lowerneck 9.52237 -0.357658 -7.0496
upperneck 17.2595 -2.19038 9.47049
head 3.74654 -1.22002 4.11783
rclavicle -1.65985e-014 -1.05356e-014
rhumerus 77.4512 -11.5286 -57.0755
rradius 46.4466
rwrist 183.203
rhand -41.5991 37.6891
rfingers 7.12502
rthumb -14.5089 8.21643
lclavicle -1.65985e-014 -1.05356e-014
lhumerus 60.3226 14.6741 13.4645
lradius 43.5666
lwrist 11.0836
lhand 12.8969 3.26597
lfingers 7.12502
lthumb 37.8685 29.1008
rfemur -27.1639 -12.9508 10.8573
rtibia 117.448
rfoot -20.7215 3.82331
rtoes 6.79239
lfemur -26.5226 5.61446 15.5686
ltibia 105.378
lfoot -26.0683 -21.4172
ltoes -30.524
